<?xml version="1.0" encoding="UTF-8" standalone="no"?>
<!-- Created with Inkscape (http://www.inkscape.org/) -->

<svg
   version="1.1"
   id="svg1"
   width="333.12759"
   height="158.09644"
   viewBox="0 0 333.1276 158.09644"
   xmlns="http://www.w3.org/2000/svg"
   xmlns:svg="http://www.w3.org/2000/svg">
  <defs
     id="defs1" />
  <g
     id="layer-Pr7"
     transform="translate(-200.28814,-386.07109)">
    <path
       id="path1557"
       d="m 267.6691,395.5116 c 1.3195,0.8337 6.2132,5.5993 7.4165,7.1232 2.2652,2.8661 4.4062,5.7532 6.1609,9.1978 l -6.5897,1.9058 z m 58.4796,-13.9915 c -10.5259,1.0343 -20.488,-2.837 -23.5508,-10.0259 -4.2279,-9.9244 0.9498,-20.2578 6.0463,-25.0271 14.0825,-13.18 39.3505,-4.3588 40.5802,14.0074 0.8688,12.9915 -14.2175,24.8706 -22.4053,28.3876 -3.852,1.6551 -8.4943,2.8273 -10.8689,5.5729 -5.7705,6.6713 -1.9695,21.7477 6.6121,23.2821 6.122,1.0941 10.2512,-2.4092 12.0305,-5.6277 2.711,-4.9028 1.3357,-9.2837 -0.0326,-13.3911 -3.5762,-0.618 -4.6571,-0.072 -7.3043,1.1129 -1.1432,4.2647 -1.133,4.7891 0.6896,8.3222 1.0531,-0.1596 1.1438,-1.9701 3.2562,-3.5501 0.1743,0.2923 2.4018,-1.2427 0.4723,3.6258 -0.506,1.2787 -1.3785,1.7583 -2.7066,2.0716 -8.242,1.9454 -10.5896,-12.905 1.2768,-13.311 15.4224,-0.5281 14.4779,16.2168 5.5026,20.1467 -10.1211,4.4314 -23.2674,0.9516 -27.891,-5.3623 -6.6591,-9.0935 -3.9092,-17.7661 10.5084,-21.685 4.9561,-1.3471 10.5803,-3.5986 13.0339,-6.3142 1.8105,-2.0035 5.0091,-8.0671 5.995,-12.3239 7.7916,-33.6336 -25.7054,-38.7842 -27.8263,-10.1801 -1.6194,21.8461 12.5723,17.2732 16.5819,20.2692 z m -43.2769,-11.1697 c -1.4703,-4.7925 -4.6992,-13.1502 -7.6603,-16.5112 -8.3872,-9.5227 -23.9434,3.2289 -18.5632,21.4784 2.7178,9.2188 5.8149,9.5113 10.381,13.2752 l 1.2838,1.1681 c 1.6072,-0.2644 21.583,-0.8778 19.2577,-23.3486 -2.9616,-28.6161 -35.962,-33.6178 -38.0834,-0.2662 -1.5083,23.7075 13.4195,22.5776 17.4543,24.6557 -14.5213,2.8375 -27.9819,-12.1033 -27.6358,-25.6467 0.8663,-33.9299 52.7853,-30.3883 56.3434,0.1009 1.7986,15.4137 -11.9463,27.1423 -27.2951,24.5424 l 0.0289,0.0263 c -15.8346,-1.3745 -20.8706,-24.9015 -12.2913,-35.367 11.3494,-13.8438 29.1147,1.5914 27.9989,12.7091 -0.4904,4.881 0.1993,1.2762 -1.2189,3.1836 z m 82.6203,-23.345 c 3.7202,4.1142 2.7856,3.5289 4.3251,3.4532 1.6739,-3.8628 0.2214,-6.2161 -3.6093,-7.8792 -10.9347,6.552 7.3718,34.7139 -1.9797,46.7555 -2.4809,3.1949 -9.6276,5.226 -10.2742,-1.5919 3.3678,0.9516 1.0806,2.1761 5.3543,2.3737 4.2262,-8.4413 -3.2839,-25.7562 -3.7476,-35.6902 -0.5922,-12.6935 12.882,-16.7995 16.6872,-10.5213 2.0016,3.3018 1.916,5.9411 0.9131,7.5841 -1.982,3.2476 -7.5484,2.6081 -7.6689,-4.4839 z M 185.3538,309.263 c 1.1835,16.8437 -3.799,64.1522 0.0368,75.7493 l 4.6993,0.007 c -0.2698,-6.2839 -0.4201,-12.5609 -0.6885,-18.8453 -0.7387,-17.2171 0.47,-7.6692 -2.63,-15.4282 3.3455,-7.0029 1.8578,-13.6275 2.3094,-22.9305 0.3628,-7.4741 2.1934,-13.9051 -3.727,-18.5519 z m 8.6034,75.6978 c 40.1834,21.7326 29.1138,-58.8221 -1.4244,-32.3553 z M 170.437,306.8155 c 2.0897,1.4837 2.5779,4.9791 -0.6139,8.6721 1.2475,2.6353 4.3126,2.2997 5.2837,2.6637 -5.3475,0.3702 -7.1705,-0.6021 -10.3918,-3.1051 -1.5338,-3.3398 -1.5236,-6.6793 0,-10.0191 8.2999,-7.3323 22.9533,-5.3365 27.3274,3.439 2.7862,5.5874 0.5006,29.7715 0.3036,37.9908 11.4803,-1.8062 25.1952,-2.8814 33.9988,3.5119 7.0755,5.1395 13.5011,15.5678 7.4361,27.3475 -13.7498,26.7049 -42.3125,3.8239 -60.6827,11.679 -0.2951,4.2721 -0.5817,2.8831 1.9551,5.0108 3.8548,-1.3606 2.8712,-7.2105 7.0948,-1.9069 -2.9392,5.247 -10.2889,4.2775 -14.2203,1.1495 0.1378,-4.2891 1.1721,-5.6806 5.0859,-6.7663 3.5791,-0.9933 6.0659,-0.5916 9.3926,-2.4239 -1.4666,-13.6437 -2.067,-28.7385 -1.8677,-42.5021 0.1771,-12.246 4.2324,-35.0881 -1.5954,-38.4418 -4.1655,-1.5718 -7.0081,-0.036 -8.5062,3.7009"
       style="fill:#231f20;fill-opacity:1;fill-rule:evenodd;stroke:none"
       transform="matrix(1.3333333,0,0,-1.3333333,0,944.88187)" />
    <path
       id="path1558"
       d="m 168.2408,364.9895 c -6.3284,2.2221 -12.1048,5.0494 -10.6886,15.8123 2.0902,-4.7835 13.8829,-9.6925 14.3889,-18.2183 0.5057,-8.5263 -10.6237,-14.7952 -12.1337,-19.7924 -2.6787,10.52 2.7227,14.0106 8.7437,16.9654 -9.4079,-4.0907 -13.386,-1.4411 -18.335,1.5381 4.5621,3.543 8.1989,6.6444 18.0247,3.6949 z m 2.1724,-5.6406 v 0 c -4.6953,-2.3755 -8.926,-5.2461 -8.7964,-11.8165 2.9437,3.3457 7.2266,7.2252 8.7964,11.8165 z m -10.5038,16.9588 v 0 c 0.6486,-6.5395 5.1889,-8.8897 10.1322,-10.6934 -2.1019,4.3736 -6.8133,7.7193 -10.1322,10.6934 z m -5.0241,-14.7362 v 0 c 5.1863,-4.4319 11.8999,-1.0706 15.0282,0.8915 -3.3384,1.5786 -10.4023,4.1222 -15.0282,-0.8915"
       style="fill:#d01920;fill-opacity:1;fill-rule:nonzero;stroke:none"
       transform="matrix(1.3333333,0,0,-1.3333333,0,944.88187)" />
    <path
       id="path1559"
       d="m 382.0374,372.551 c 6.328,2.2223 12.1045,5.0496 10.6883,15.8122 -2.0903,-4.7835 -13.883,-9.6925 -14.3889,-18.2183 -0.5057,-8.526 10.6236,-14.7949 12.1337,-19.7923 2.679,10.5199 -2.7227,14.0105 -8.7438,16.9653 9.4082,-4.0907 13.3861,-1.4411 18.3351,1.5381 -4.5621,3.543 -8.199,6.6444 -18.0244,3.695 z m -2.1728,-5.6407 v 0 c 4.6953,-2.3754 8.926,-5.2461 8.7965,-11.8165 -2.9438,3.3457 -7.2266,7.2252 -8.7965,11.8165 z m 10.5038,16.9591 v 0 c -0.6483,-6.5395 -5.1888,-8.89 -10.1321,-10.6937 2.1018,4.3736 6.8133,7.7193 10.1321,10.6937 z m 5.0241,-14.7365 v 0 c -5.1862,-4.4316 -11.8998,-1.0706 -15.0281,0.8918 3.3386,1.5784 10.4023,4.1219 15.0281,-0.8918"
       style="fill:#d01920;fill-opacity:1;fill-rule:nonzero;stroke:none"
       transform="matrix(1.3333333,0,0,-1.3333333,0,944.88187)" />
  </g>
</svg>
