<?xml version="1.0" encoding="UTF-8" standalone="no"?>
<!-- Created with Inkscape (http://www.inkscape.org/) -->

<svg
   version="1.1"
   id="svg1"
   width="122.56018"
   height="147.21997"
   viewBox="0 0 122.56018 147.21997"
   xmlns="http://www.w3.org/2000/svg"
   xmlns:svg="http://www.w3.org/2000/svg">
  <defs
     id="defs1" />
  <g
     id="layer-Pr7"
     transform="translate(-455.01661,-532.1264)">
    <path
       id="path1554"
       d="m 379.9647,211.9504 c 0.5944,-0.5318 0.3268,-0.5896 1.4562,-0.4637 0.4662,0.6888 3.9095,10.3232 6.9448,14.1687 0.0173,-2.3993 -2.2614,-7.7825 -1.9071,-9.7093 0.2389,-1.3011 1.7022,-1.053 2.4043,-0.4484 0.6058,0.5216 2.2791,3.8015 2.8902,4.9028 0.7359,1.3263 1.9871,3.8665 3.1607,4.892 -0.3124,-4.2514 -1.8669,-8.8854 -2.0209,-13.4393 -0.0249,-0.7393 -0.1303,-3.4206 0.9944,-3.498 0.9797,-0.0671 0.3575,0.025 0.584,0.1971 0.1862,0.3089 0.006,3.8928 0.1346,4.8821 0.4343,3.3363 1.2195,6.2844 1.7334,9.593 l 0.3847,3.8358 c -0.0125,2.5107 -1.891,1.7164 -3.1057,-0.142 -1.4026,-2.1458 -4.8036,-7.2638 -5.2965,-9.112 0.003,0.6341 4.0161,13.1358 0.138,10.5945 -2.3329,-1.529 -8.5342,-15.1174 -8.4951,-16.2533 z m -8.3444,15.4829 c 0,-1.7266 -0.2276,-7.6043 0.3504,-8.8558 0.4059,-0.8793 0.8598,-0.7778 1.6231,-1.2747 -0.3886,-1.7206 -1.7838,-4.155 -1.019,-5.8683 l 0.9241,0.01 c 0.2259,0.4124 0.9226,3.4293 1.243,4.3489 0.5065,1.4547 1.0771,2.7856 1.654,4.1904 0.5938,1.4463 1.11,2.7715 1.7416,4.106 0.5196,1.0976 1.9888,3.0906 1.5882,3.9912 -1.4547,1.0899 -2.8372,-2.6685 -3.3789,-3.9614 -0.4076,-0.9723 -0.8155,-1.9406 -1.1922,-2.8973 -0.432,-1.0979 -0.4799,-2.2947 -1.5358,-2.5016 -1.1568,1.4083 0.1284,7.8792 -0.4856,9.4045 -0.3512,0.8722 -1.5129,1.1469 -1.5129,-0.6916 z m -10.345,0.4237 c -0.2322,-0.8787 1.5273,-3.8364 1.7966,-5.1587 -0.3603,-0.4317 -0.697,-0.7855 -1.0361,-1.2189 -0.3866,-0.4947 -0.6624,-0.83 -1.0454,-1.2887 -1.7665,-2.1166 -5.1806,-7.3919 -4.4149,-9.8169 2.2889,-0.8992 1.1372,0.7707 1.6058,2.1033 0.6109,1.7385 4.0901,7.901 5.6163,8.64 0.2846,-1.3354 1.4213,-3.9728 1.9967,-5.2075 0.4266,-0.9156 1.9216,-4.6423 2.9571,-3.9274 0.3954,0.2727 0.2231,0.892 -0.002,1.4091 l -1.8306,3.8313 c -0.5338,1.2849 -1.9491,4.3463 -2.1149,5.6148 0.5893,0.3314 0.8075,0.7586 1.3025,1.2019 l 2.8153,2.2459 c 0.5959,0.4176 1.3207,0.9479 0.6381,1.5761 -1.3612,0.7721 -5.1162,-3.1096 -5.3549,-3.6077 -0.4,0.7861 -0.6106,1.5248 -0.9867,2.3196 -0.2699,0.5704 -0.5854,1.2821 -1.1546,1.4049 -6e-4,3e-4 -0.2588,0.1723 -0.7886,-0.1211 z m 47.5889,-15.4956 c 1.4737,-1.2421 3.5002,-0.9031 5.8609,-0.9031 1.9052,0 4.9584,-0.2585 6.4307,0.5023 0.0108,1.5662 -1.0678,1.3167 -4.6749,1.0052 -1.3692,-0.1185 -4.0771,-0.4292 -5.3416,-0.2234 1.1732,0.3535 5.0377,3.3231 6.0094,5.2535 1.565,3.1096 -0.1516,6.8264 -1.9474,8.1819 1.0415,0.3467 2.2669,0.3895 3.4223,0.3946 1.3127,0.006 4.358,-1.2665 3.4628,0.5748 -0.337,0.6931 -2.0075,0.8025 -2.6796,0.8397 -0.792,0.0436 -9.1817,-0.0312 -6.232,-2.098 0.6971,-0.4884 1.6518,-0.7511 2.4846,-2.3884 2.5906,-5.093 -2.8239,-7.4197 -5.906,-9.4034 -0.6925,-0.4459 -1.0063,-0.5224 -0.8892,-1.7357 z m -6.4355,14.7657 c 3.024,1.0077 4.9671,-3.0036 4.4379,-6.0661 -0.8558,-4.951 -5.15,-11.1702 -6.5681,-7.2754 -1.1061,3.0359 0.5269,12.8072 2.1302,13.3415 z m 0.112,1.5168 c 0.847,1.6549 -0.3867,1.7453 -1.1566,0.8365 l -2.0636,-3.4256 c -0.5168,-1.1815 0.0502,-0.9488 0.1851,-1.2827 0.1746,-0.4326 -3.7378,-14.8073 2.471,-13.604 2.8644,0.555 5.1962,5.3042 6.078,8.7222 0.5607,2.1733 0.4476,4.5022 -0.604,6.3073 -1.1642,1.9987 -2.2581,1.9412 -4.9099,2.4463"
       style="fill:#231f20;fill-opacity:1;fill-rule:evenodd;stroke:none"
       transform="matrix(1.3333333,0,0,-1.3333333,0,944.88187)" />
    <path
       id="path1555"
       d="m 350.3458,253.7569 c 1.6395,-0.6582 3.6935,-2.3003 2.2617,-4.5292 -0.7724,-1.203 -2.4392,-2.7482 -4.1428,-3.4724 z m -3.9263,-8.9081 c -5.8538,-1.325 -3.6661,4.5272 -0.4499,8.0988 1.0781,1.1974 1.7476,1.3958 2.7043,2.0347 0.165,-1.9352 -1.5976,-8.257 -2.2544,-10.1335 z m -0.2673,-1.6149 c -0.2279,-1.8839 -1.2305,-7.1286 1.3416,-6.6496 0.2557,0.8011 0.091,5.0395 0.4462,6.9687 4.6077,1.8128 9.9329,7.0036 4.3129,10.9576 -0.7262,0.5114 -1.5582,0.7113 -1.821,1.5265 -0.2809,0.8711 -0.2704,2.2258 -1.4391,1.5613 -1.1483,-0.6531 0.5919,-0.021 -1.7487,-1.4267 -0.6457,-0.388 -1.4272,-1.1562 -1.8366,-1.5366 -4.4467,-4.1352 -6.8017,-11.8006 0.7447,-11.4012 z m 47.658,4.0748 c 0.2299,2.1115 2.0112,5.6392 2.5404,7.9208 0.3796,1.6356 -1.381,2.5382 -2.0534,0.4416 l -3.6297,-12.1206 c -0.3909,-1.404 -0.7135,-2.797 -0.9304,-4.254 -0.3724,-2.5058 -0.5371,-3.5053 1.0934,-3.4945 0.2114,0.3634 1.5774,7.2476 2.4857,9.7914 1.0366,-1.1259 3.7851,-2.5387 5.0198,-3.7034 2.7352,-2.5796 2.3687,-4.686 4.3679,-4.2843 0.54,2.7547 -5.0607,7.1932 -7.351,8.4807 0.6017,1.0916 1.3909,1.6616 2.0959,2.6084 l 4.3064,5.1449 c 0.574,0.6466 2.088,1.9749 0.9436,2.772 -0.9547,0.6653 -2.0868,-1.0848 -2.5608,-1.6107 -0.8206,-0.9099 -1.3875,-1.6134 -2.1736,-2.5463 z m 15.6671,8.3236 c 3.4915,1.1634 5.7348,-3.4676 5.1236,-7.0033 -0.9878,-5.716 -5.9453,-12.8959 -7.5829,-8.3996 -1.014,2.7839 -0.1471,8.2358 0.5794,11.1487 0.32,1.2827 0.7687,3.884 1.8799,4.2542 z m 0.1296,1.751 c 0.0414,0.5136 0.881,0.9708 0.0354,1.4604 -1.2821,0.7424 -2.1263,-2.1073 -2.9387,-3.2068 -1.872,-2.5334 -0.7376,-2.3848 -0.6009,-2.7233 0.2018,-0.4997 -4.3149,-17.0949 2.8528,-15.7059 3.3069,0.6409 5.9989,6.1237 7.0171,10.0695 0.6475,2.5092 0.5165,5.1979 -0.6973,7.2819 -1.3442,2.3077 -2.607,2.2411 -5.6684,2.8242 z m 12.8058,-18.2648 c -0.6659,-0.2888 -2.0268,-0.3566 -2.9325,-0.1468 l 0.9414,0.5734 c 3.2545,2.3182 8.6105,5.5188 6.2867,11.3811 -0.4629,1.1682 -1.878,3.1519 -2.4849,3.6102 1.2022,0.4 2.617,0.4493 3.951,0.4553 1.5536,0.007 3.0078,-0.7458 3.916,-0.453 0.5854,0.4958 0.3532,1.5273 -1.4357,1.9057 -0.9964,0.2109 -2.3241,0.2322 -3.3829,0.1948 -1.059,-0.0372 -5.6441,-0.1429 -5.9754,-1.2407 0.0553,-1.414 0.718,-1.0968 1.616,-1.7533 2.2706,-1.6602 3.4376,-5.364 1.7719,-7.8899 -2.2858,-3.4657 -8.8253,-5.1724 -7.7771,-7.1697 1.7014,-1.434 4.0411,-1.0429 6.7663,-1.0429 2.1997,0 5.7246,-0.2982 7.4242,0.58 0.0108,1.5815 -0.1533,1.4145 -3.8265,1.2654 -1.6078,-0.0652 -3.2924,-0.4124 -4.8585,-0.2696 z m -50.8303,0 c -0.6662,-0.2888 -2.0271,-0.3566 -2.9328,-0.1468 l 0.9417,0.5734 c 3.2542,2.3182 8.6102,5.5188 6.2864,11.3811 -0.4629,1.1682 -1.878,3.1519 -2.4848,3.6102 1.2024,0.4 2.6172,0.4493 3.9509,0.4553 1.5536,0.007 3.0078,-0.7458 3.916,-0.453 0.5854,0.4958 0.3532,1.5273 -1.4357,1.9057 -1.6546,0.3504 -8.9453,0.3226 -9.3583,-1.0459 -0.4105,-1.3598 1.9585,-1.1577 3.3792,-3.8041 4.3852,-8.1672 -9.2611,-10.1648 -7.7684,-13.0088 1.7017,-1.434 4.0414,-1.0429 6.7666,-1.0429 2.1994,0 5.7243,-0.2982 7.4239,0.58 0.009,1.2481 0.0108,1.2705 -1.3243,1.3241 -0.7594,0.0306 -1.7283,-0.0272 -2.5019,-0.0587 -1.608,-0.0652 -3.2927,-0.4124 -4.8585,-0.2696 z m -14.766,16.867 c 0,-1.993 -0.2628,-8.7789 0.4042,-10.2237 0.4689,-1.0151 0.9927,-0.8977 1.874,-1.4718 -0.4484,-1.9862 -2.0594,-4.7967 -1.1764,-6.7745 l 1.067,0.0111 c 0.2608,0.4759 1.065,3.9591 1.4346,5.0204 0.5851,1.6796 1.2439,3.2162 1.9097,4.8382 0.686,1.6696 1.2816,3.1997 2.0109,4.7401 0.5995,1.2671 2.2958,3.568 1.8335,4.6077 -1.6796,1.2586 -3.2758,-3.0807 -3.9011,-4.5734 -0.4702,-1.1222 -0.9417,-2.2402 -1.3762,-3.3449 -0.4989,-1.2674 -0.5539,-2.649 -1.7731,-2.8879 -1.3357,1.6259 0.1483,9.0963 -0.5607,10.8572 -0.4053,1.0072 -1.7464,1.3244 -1.7464,-0.7985 z m 26.458,-18.7608 1.355,-0.0522 c 0.4674,1.4318 0.4371,3.674 0.7563,5.3915 0.6633,3.5691 1.3918,6.238 2.0072,10.1424 0.3016,1.9134 1.3921,4.3611 -1.0573,4.1434 -0.4442,-0.9034 -1.5293,-7.9654 -1.9044,-9.7716 -0.4889,-2.3553 -2.0219,-7.8267 -1.1568,-9.8535"
       style="fill:#231f20;fill-opacity:1;fill-rule:evenodd;stroke:none"
       transform="matrix(1.3333333,0,0,-1.3333333,0,944.88187)" />
    <path
       id="path1556"
       d="m 399.0237,267.4281 c -2.3238,3.5516 -0.8765,12.0708 0.1247,16.4611 3.3571,14.7197 15.2014,11.8695 8.432,-6.5418 -1.503,-4.087 -4.125,-10.0808 -8.5567,-9.9193 z m 6.575,28.8043 c -3.9201,-0.7007 -5.7291,-2.9135 -7.2879,-5.0514 -3.7911,-5.1981 -6.984,-30.7853 3.3888,-26.6561 9.7864,3.8956 16.2664,33.9185 3.8991,31.7075 z m -27.5556,-28.8043 c -2.7318,4.1757 -0.5939,17.6976 2.7,23.0329 3.4636,5.6101 11.9143,3.3608 5.8569,-13.1136 -1.5029,-4.087 -4.1252,-10.0808 -8.5569,-9.9193 z m 6.5752,28.8043 c -3.9203,-0.7007 -5.7291,-2.9135 -7.2881,-5.0514 -2.3542,-3.2283 -2.1393,-5.4459 -2.8673,-9.7395 -4.1026,-24.1988 10.2342,-21.6029 15.914,-1.7572 1.7206,6.012 2.1932,17.9697 -5.7586,16.5481 z m -20.1574,-12.7369 c -0.5465,-3.2063 -2.3454,-7.6751 -3.5637,-10.584 -1.2229,-2.9214 -1.3723,-3.6559 -3.187,-4.1125 -2.6558,-0.6682 -4.1919,-0.5233 -4.0164,-3.4345 2.9208,-1.3079 7.9078,1.4649 10.8184,1.5851 2.215,0.0913 1.7759,-0.5247 3.8846,0.3206 1.209,3.9751 -2.1249,2.8287 -5.3575,2.7987 0.9346,4.0456 5.3274,15.4701 7.1249,21.4268 0.8087,2.6793 2.8797,6.58 -1.0111,6.302 -1.7334,-2.0466 -1.7436,-6.6374 -6.2788,-11.2201 -0.7713,-0.7798 -4.5334,-2.8021 -3.9764,-4.4524 1.0315,-3.056 4.8557,0.847 5.563,1.3703 z m 51.3813,-18.9301 c 1.2096,0.1242 0.9088,0.4176 2.289,2.6252 4.0442,6.4675 8.4685,11.9888 12.0277,17.5263 0.5698,0.8861 2.2022,2.4568 0.8425,3.2105 -1.5622,0.866 -2.6504,-2.1342 -3.6043,-3.4673 -0.3983,-0.5564 -0.6673,-0.811 -1.0542,-1.3978 -1.6047,-2.4344 -9.7835,-14.3886 -10.5695,-16.5376 -0.6523,-1.7838 0.0686,-1.959 0.0688,-1.9593 z m 10.5914,1.6537 c -0.9485,2.3494 0.4119,7.2621 2.7023,6.4426 1.4136,-0.5057 0.5612,-2.882 0.0632,-3.9628 -0.7073,-1.5364 -1.0188,-2.3686 -2.7655,-2.4798 z m 2.0959,8.5128 c -1.1389,-0.2231 -4.1048,0.9615 -4.3888,-5.0709 -0.1222,-2.5917 0.1187,-6.3482 3.3222,-5.525 4.0802,1.0482 6.6517,11.6898 1.0666,10.5959 z m -8.2879,10.9272 c 0.6046,-2.2648 -2.0596,-7.0268 -3.1915,-6.4629 -1.3074,0.6516 0.07,6.4831 3.1915,6.4629 z m -1.0548,1.9483 c -1.0391,-0.275 -0.8475,-0.373 -1.6466,-0.6707 -0.9264,-0.345 -1.8525,0.5925 -2.7567,-4.3724 -1.4236,-7.8132 4.3566,-7.6309 7.086,-0.2217 0.8853,2.4032 0.5344,6.1155 -2.6827,5.2648"
       style="fill:#d01920;fill-opacity:1;fill-rule:evenodd;stroke:none"
       transform="matrix(1.3333333,0,0,-1.3333333,0,944.88187)" />
    <path
       id="path1560"
       d="m 371.4744,203.1273 c 10.4031,-1.999 36.8127,7.4327 44.8137,4.6661 1.1557,-5.5791 -27.974,-10.478 -21.3344,-7.4134 4.2599,1.9661 31.0649,3.7383 37.4641,3.7383 h 0.7648"
       style="fill:none;stroke:#918f8f;stroke-width:0.5669;stroke-linecap:butt;stroke-linejoin:miter;stroke-miterlimit:22.9256;stroke-dasharray:none;stroke-opacity:1"
       transform="matrix(1.3333333,0,0,-1.3333333,0,944.88187)" />
    <path
       id="path1561"
       d="m 431.706,305.591 c -10.4031,1.999 -36.8126,-7.4328 -44.8137,-4.6661 -1.1557,5.5791 27.974,10.4779 21.3344,7.4134 -4.2599,-1.9661 -31.0649,-3.7383 -37.4641,-3.7383 h -0.7648"
       style="fill:none;stroke:#918f8f;stroke-width:0.5669;stroke-linecap:butt;stroke-linejoin:miter;stroke-miterlimit:22.9256;stroke-dasharray:none;stroke-opacity:1"
       transform="matrix(1.3333333,0,0,-1.3333333,0,944.88187)" />
  </g>
</svg>
